<svg width="207" height="353" viewBox="0 0 207 353" fill="none" xmlns="http://www.w3.org/2000/svg">
<path d="M33.664 194.928L48.3557 171.821C47.515 168.041 45.0778 160.649 42.0545 161.322C38.2755 162.164 19.3853 187.793 11.4094 198.297C3.43344 208.801 -0.763476 218.463 5.95553 220.141C11.3307 221.483 26.6675 203.892 33.664 194.928Z" fill="#FFEDDE"/>
<path d="M177.182 171.75L165.202 166.365C163.48 167.085 160.17 168.884 160.709 170.321C161.383 172.118 174.861 179.372 180.402 182.461C185.943 185.549 190.81 186.84 191.11 183.389C191.349 180.629 181.924 174.48 177.182 171.75Z" fill="#FFEDDE"/>
<path d="M140.542 304.969L148.87 294.811C148.625 292.961 147.753 289.296 146.225 289.441C144.314 289.622 133.792 300.738 129.363 305.279C124.934 309.821 122.417 314.182 125.669 315.372C128.272 316.325 136.669 308.833 140.542 304.969Z" fill="#FFEDDE"/>
<path d="M32.3398 323.684L45.3192 308.376C44.881 305.542 43.3979 299.918 40.9706 300.099C37.9366 300.326 21.4916 317.039 14.567 323.865C7.64247 330.691 3.75196 337.291 8.95696 339.195C13.121 340.719 26.2805 329.489 32.3398 323.684Z" fill="#FFEDDE"/>
<path d="M137.514 188.589L137.513 188.501C137.239 169.692 132.176 127.627 112.297 145.344C92.3873 163.088 41.6691 273.507 18.5822 318.15L24.395 333.425C55.9001 313.711 114.069 226.062 137.514 188.589Z" fill="#3E4164"/>
<path d="M143.021 175L123.524 184.595C123.524 198.242 137.394 231 166.894 252.5L188.394 263.5L202.394 259C198.946 219.553 161.875 196.323 143.021 175Z" fill="#3E4164"/>
<path d="M138.205 78.0038C129.955 70.0755 120.314 79.7002 116.524 85.5035C117.493 107.199 122.711 153.108 135.825 163.179C148.939 173.25 170.02 180.589 178.922 183C182.711 180.857 189.286 176.09 185.267 174.161C180.244 171.75 163.322 151.662 155.919 141.751C148.516 131.841 148.516 87.9142 138.205 78.0038Z" fill="#3E4164"/>
<path d="M108.524 80L130.028 29L138.524 34.6073L130.028 80H108.524Z" fill="#FFEDDE"/>
<path d="M158.775 63.6008C159.631 61.2824 162.426 51.8197 158.581 33.6964C156.606 24.3877 151.254 17.9699 147.614 17.0102C122.134 10.292 119.253 28.1274 121.054 39.8605C121.104 43.1842 118.715 50.213 132.556 60.0525C146.397 69.8919 157.785 67.2107 158.775 63.6008Z" fill="#FFEDDE"/>
<path d="M147.137 24.4296C149.941 24.3742 153.307 23.0847 155.358 21.9158C153.209 9.5722 137.575 5.25882 129.548 4.22123C121.52 3.18365 109.372 14.7248 107.718 22.3188C106.394 28.394 109.704 39.9667 112.347 43.7459L126.2 56.4869C126.478 54.4543 127.005 50.2314 126.896 49.6011C126.786 48.9708 128.974 48.0667 130.081 47.6935L129.624 45.0672C128.094 45.6042 124.668 44.5771 125.021 38.8333C125.303 34.2382 130.375 33.8421 133.882 39.9963C133.345 38.4663 133.562 35.6685 132.922 34.4811C132.122 32.9967 131.679 30.739 132.567 27.7782C133.765 23.7813 134.873 25.4825 138.287 24.888C141.791 24.278 143.631 24.4988 147.137 24.4296Z" fill="black"/>
<path d="M112.456 68C119.423 70.6636 125.278 72.4559 130.547 72.278C138.586 72.6555 130.547 80.5544 130.547 97.3742C130.547 114.194 141.533 149.97 146.356 164.921C151.179 179.872 158.414 192.687 151.983 197.759C146.839 201.817 91.9627 199.45 65.1679 197.759C48.2872 194.556 44.9331 189.744 60.742 165.982C79.2693 138.135 75.7471 137.415 85.1253 122.197L99.0586 92.2953C99.0586 85.0868 112.456 68 112.456 68Z" fill="#D9D9D9"/>
<path d="M121.811 70.485L110.878 67C83.1454 116.148 26.5483 213.692 46.8143 209.617C67.0804 205.543 101.835 214.175 116.679 219C132.252 204.631 128.3 114.271 121.811 70.485Z" fill="#3E4164"/>
<path d="M4.52392 205.46C12.645 187.728 78.0763 107.098 109.777 69L117.524 99.7102C108.975 115.822 89.5811 151.891 80.3915 167.273C71.2019 182.655 37.204 202.167 21.3537 210C18.3617 206.582 8.8872 205.549 4.52392 205.46Z" fill="#3E4164"/>
<path d="M138.472 310.008C158.52 304.208 188.995 273.719 201.727 259.199C199.747 250.777 192.745 235.44 180.583 241.471C168.421 247.501 141.791 284.534 129.996 302.297L138.472 310.008Z" fill="#3E4164"/>
<path d="M24.5118 348.209C24.9634 342.431 21.8127 339.297 19.5968 334.325C15.7459 328.938 13.2174 324.693 8.39794 325.781C6.64545 326.176 3.69722 328.929 5.27365 333.052C8.68925 341.985 23.9472 355.432 24.5118 348.209Z" fill="#4D3232"/>
<path d="M142.323 326.422C141.806 321.118 138.122 318.561 135.066 314.242C130.302 309.699 127.055 306.072 122.407 307.517C120.716 308.042 118.223 310.827 120.495 314.433C125.418 322.245 142.969 333.053 142.323 326.422Z" fill="#4D3232"/>
</svg>
